<svg id="Outline-Expanded" enable-background="new 0 0 64 64" height="512" viewBox="0 0 64 64" width="512" xmlns="http://www.w3.org/2000/svg"><path d="m57 2h-45c-3.309 0-6 2.691-6 6v48c0 3.309 2.691 6 6 6h45c.552 0 1-.448 1-1v-58c0-.552-.448-1-1-1zm-1 48h-3.899c.399-1.956 1.943-3.5 3.899-3.899zm0-42.101c-1.956-.399-3.5-1.943-3.899-3.899h3.899zm-44-3.899h38.08c.44 3.059 2.861 5.48 5.92 5.92v34.16c-3.059.441-5.48 2.861-5.92 5.92h-38.08c-1.538 0-2.937.586-4 1.54v-43.54c0-2.206 1.794-4 4-4zm44 56h-44c-2.206 0-4-1.794-4-4s1.794-4 4-4h44z"/><path d="m43 54h10v2h-10z"/><path d="m14 56h11v2h-11z"/><path d="m37 54h4v2h-4z"/><path d="m27 56h2v2h-2z"/><path d="m11 7h2v22h-2z"/><path d="m11 31h2v2h-2z"/><path d="m11 35h2v2h-2z"/><path d="m11 39h2v2h-2z"/><path d="m33 23h-2c-.551 0-1-.449-1-1h-2c0 1.654 1.346 3 3 3v1h2v-1c1.654 0 3-1.346 3-3v-1c0-1.654-1.346-3-3-3h-2c-.551 0-1-.449-1-1v-1c0-.551.449-1 1-1h2c.551 0 1 .449 1 1h2c0-1.654-1.346-3-3-3v-1h-2v1c-1.654 0-3 1.346-3 3v1c0 1.654 1.346 3 3 3h2c.551 0 1 .449 1 1v1c0 .551-.449 1-1 1z"/><path d="m32 30c6.065 0 11-4.935 11-11s-4.935-11-11-11-11 4.935-11 11 4.935 11 11 11zm0-20c4.962 0 9 4.038 9 9s-4.038 9-9 9-9-4.038-9-9 4.038-9 9-9z"/><path d="m25 45h14v2h-14z"/><path d="m31 32v7.586l-2.293-2.293-1.414 1.414 4 4c.195.195.451.293.707.293s.512-.098.707-.293l4-4-1.414-1.414-2.293 2.293v-7.586z"/></svg>