<svg xmlns="http://www.w3.org/2000/svg" width="81.917" height="63.922" viewBox="0 0 81.917 63.922">
  <g id="ton" transform="translate(-534 -1256)">
    <path id="Subtração_1" data-name="Subtração 1" d="M-2393.5,553a19.373,19.373,0,0,1-13.789-5.711A19.372,19.372,0,0,1-2413,533.5a19.374,19.374,0,0,1,5.711-13.789A19.373,19.373,0,0,1-2393.5,514a19.372,19.372,0,0,1,13.788,5.712A19.373,19.373,0,0,1-2374,533.5a19.372,19.372,0,0,1-5.711,13.788A19.372,19.372,0,0,1-2393.5,553Zm.5-28a9.01,9.01,0,0,0-9,9,9.01,9.01,0,0,0,9,9,9.01,9.01,0,0,0,9-9A9.01,9.01,0,0,0-2393,525Z" transform="translate(2947 742)" fill="#707070"/>
    <path id="Caminho_11" data-name="Caminho 11" d="M-.037,25.077S-3.642.579,13.935.756,28.082,25.077,28.082,25.077" transform="translate(581.5 1262.5)" fill="none" stroke="#707070" stroke-linecap="round" stroke-width="12"/>
    <path id="Caminho_13" data-name="Caminho 13" d="M0,0A29.2,29.2,0,0,0,23.238,10.922C38.843,10.922,46,0,46,0" transform="translate(549.5 1303.5)" fill="none" stroke="#707070" stroke-linecap="round" stroke-width="11"/>
  </g>
</svg>
